#!OML:ASF I:\golf\golf\golf 2\Subject 1\2002-09-07\Subject1.ASF
:FULLY-SPECIFIED
:DEGREES
385
root -1.20445 16.1401 -3.69282 100.548 29.1163 32.8723
lowerback -0.0756428 2.92422 9.11858
upperback 8.19206 3.0257 10.9358
thorax 8.72766 1.68617 6.9724
lowerneck -10.9662 -11.1733 -0.602638
upperneck -4.99053 -15.2147 0.805154
head 0.307526 -7.76935 -0.185329
rclavicle 1.59028e-014 -2.70347e-014
rhumerus 56.2414 -23.153 -44.8612
rradius 23.4662
rwrist 0.740374
rhand -40.8741 7.08694
rfingers 7.12502
rthumb -13.8103 -22.4346
lclavicle 1.59028e-014 -2.70347e-014
lhumerus -36.2879 -41.8728 108.921
lradius 79.3127
lwrist -1.66219
lhand -41.8464 26.2308
lfingers 7.12502
lthumb -14.7472 55.6862
rfemur -127.971 -25.3717 23.2576
rtibia 54.991
rfoot -6.30846 -4.33202
rtoes 10.0721
lfemur -100.873 -16.2593 -10.8257
ltibia 34.1406
lfoot -3.28351 -24.5941
ltoes 3.88426
386
root -1.19384 16.1606 -3.70966 100.026 29.1307 32.6548
lowerback 0.225027 2.87462 9.07035
upperback 8.27177 3.00135 10.9236
thorax 8.6367 1.67286 6.96529
lowerneck -11.0812 -11.1537 -0.602141
upperneck -4.8166 -15.1823 0.790661
head 0.380348 -7.75049 -0.203721
rclavicle 9.54166e-015 5.88403e-014
rhumerus 55.747 -22.7356 -44.6347
rradius 23.5535
rwrist 0.390793
rhand -41.9932 7.31666
rfingers 7.12502
rthumb -14.8886 -22.1283
lclavicle 9.54166e-015 5.88403e-014
lhumerus -36.2686 -41.6923 108.886
lradius 79.2416
lwrist -1.73289
lhand -41.8145 25.924
lfingers 7.12502
lthumb -14.7165 55.3817
rfemur -127.47 -25.2844 23.112
rtibia 54.8501
rfoot -6.20934 -4.22938
rtoes 9.85139
lfemur -100.402 -16.2306 -11.0301
ltibia 34.1057
lfoot -3.52151 -24.6604
ltoes 2.51608
387
root -1.18225 16.1862 -3.72669 99.5419 29.2257 32.4646
lowerback 0.306834 2.8559 9.08383
upperback 8.42448 2.96974 10.9491
thorax 8.76238 1.65811 6.9954
lowerneck -11.4253 -11.1718 -0.611435
upperneck -4.44118 -15.196 0.733033
head 0.552443 -7.75362 -0.259065
rclavicle 9.54166e-015 5.56597e-014
rhumerus 55.4449 -22.5263 -44.5408
rradius 23.5759
rwrist -0.0474453
rhand -41.3893 6.65259
rfingers 7.12502
rthumb -14.3068 -22.8345
lclavicle 9.54166e-015 5.56597e-014
lhumerus -36.1199 -41.5498 108.785
lradius 79.3025
lwrist -1.89184
lhand -41.778 25.6239
lfingers 7.12502
lthumb -14.6813 55.0841
rfemur -126.984 -25.2039 23.0696
rtibia 54.6879
rfoot -6.11929 -4.12438
rtoes 9.78395
lfemur -100.02 -16.2158 -11.0719
ltibia 34.1682
lfoot -3.66499 -24.5835
ltoes 2.19195
388
root -1.16918 16.2046 -3.74283 99.0705 29.3354 32.2525
lowerback 0.339032 2.84668 9.09746
upperback 8.57885 2.94226 10.9748
thorax 8.91974 1.64505 7.03105
lowerneck -11.6433 -11.1744 -0.639328
upperneck -4.25862 -15.1901 0.747499
head 0.650161 -7.74798 -0.273535
rclavicle -5.08889e-014 -3.97569e-014
rhumerus 55.4018 -22.5036 -45.0028
rradius 23.4657
rwrist -0.0683133
rhand -40.8107 6.08894
rfingers 7.12502
rthumb -13.7492 -23.4368
lclavicle -5.08889e-014 -3.97569e-014
lhumerus -35.8936 -41.5126 108.639
lradius 79.3821
lwrist -1.99397
lhand -41.7641 25.7515
lfingers 7.12502
lthumb -14.6678 55.2127
rfemur -126.523 -25.1184 23.0527
rtibia 54.5102
rfoot -6.11527 -3.93482
rtoes 9.47588
lfemur -99.731 -16.1878 -10.9571
ltibia 34.3081
lfoot -3.99095 -24.3863
ltoes 2.32027
389
root -1.15492 16.2205 -3.75643 98.3515 29.389 31.9167
lowerback 0.939188 2.77589 9.12855
upperback 8.58886 2.94447 10.9131
thorax 8.57772 1.65295 6.89166
lowerneck -11.6181 -11.1291 -0.718114
upperneck -4.11903 -15.1101 0.857505
head 0.706194 -7.70129 -0.232301
rclavicle 6.04305e-014 -6.36111e-015
rhumerus 55.1206 -22.1682 -45.6593
rradius 23.3699
rwrist -0.113835
rhand -41.4324 6.68606
rfingers 7.12502
rthumb -14.3483 -22.7981
lclavicle 6.04305e-014 -6.36111e-015
lhumerus -36.0447 -41.3311 108.584
lradius 79.3784
lwrist -2.11161
lhand -41.7558 25.9851
lfingers 7.12502
lthumb -14.6599 55.4469
rfemur -125.857 -24.9532 22.9158
rtibia 54.3609
rfoot -6.26449 -3.67915
rtoes 8.00802
lfemur -99.2564 -16.1383 -10.7706
ltibia 34.4732
lfoot -4.41568 -23.9681
ltoes 2.04563
390
root -1.13953 16.2427 -3.77526 97.6593 29.366 31.5927
lowerback 1.44315 2.7244 9.07077
upperback 8.58432 2.96065 10.849
thorax 8.27099 1.66057 6.80731
lowerneck -11.5729 -11.0955 -0.751943
upperneck -3.9633 -15.0532 0.875904
head 0.753271 -7.6679 -0.223945
rclavicle 3.18055e-015 -4.13472e-014
rhumerus 54.4689 -21.6564 -45.6866
rradius 23.3525
rwrist -0.601923
rhand -42.2131 7.21527
rfingers 7.12502
rthumb -15.1004 -22.2139
lclavicle 3.18055e-015 -4.13472e-014
lhumerus -36.2692 -41.1844 108.66
lradius 79.3853
lwrist -2.23495
lhand -41.694 26.0748
lfingers 7.12502
lthumb -14.6003 55.5409
rfemur -125.264 -24.7809 22.8014
rtibia 54.2373
rfoot -6.12084 -3.4839
rtoes 6.95681
lfemur -98.8256 -16.1366 -10.6594
ltibia 34.6677
lfoot -4.78969 -23.5534
ltoes 1.18838
391
root -1.12517 16.2623 -3.80063 97.2722 29.395 31.3838
lowerback 1.41319 2.73425 8.96924
upperback 8.61054 2.96791 10.8478
thorax 8.31067 1.65727 6.86751
lowerneck -11.5452 -11.1014 -0.701917
upperneck -3.91097 -15.0654 0.843256
head 0.759243 -7.67378 -0.241396
rclavicle -9.54166e-015 -6.67916e-014
rhumerus 53.7443 -21.2437 -45.244
rradius 23.3346
rwrist -1.24968
rhand -41.8065 6.44725
rfingers 7.12502
rthumb -14.7087 -23.011
lclavicle -9.54166e-015 -6.67916e-014
lhumerus -36.2376 -41.2476 108.732
lradius 79.4438
lwrist -2.21805
lhand -42.0985 24.884
lfingers 7.12502
lthumb -14.99 54.3214
rfemur -124.97 -24.6563 22.8538
rtibia 54.0924
rfoot -5.65514 -3.43431
rtoes 7.10434
lfemur -98.7128 -16.1577 -10.4812
ltibia 34.8919
lfoot -5.1678 -23.2592
ltoes 0.789456
392
root -1.11417 16.2721 -3.82361 96.9587 29.6392 31.1831
lowerback 1.40853 2.73656 9.04117
upperback 8.58647 2.97073 10.8876
thorax 8.29002 1.66202 6.87085
lowerneck -11.586 -11.0981 -0.642862
upperneck -3.84411 -15.0653 0.822995
head 0.781563 -7.67326 -0.26119
rclavicle -9.22361e-014 -4.77083e-014
rhumerus 53.1081 -20.8373 -44.9637
rradius 23.2669
rwrist -1.83896
rhand -40.9212 5.67415
rfingers 7.12502
rthumb -13.8556 -23.8443
lclavicle -9.22361e-014 -4.77083e-014
lhumerus -36.1504 -41.2422 108.711
lradius 79.4376
lwrist -2.16463
lhand -42.8245 22.0394
lfingers 7.12502
lthumb -15.6893 51.4233
rfemur -124.6 -24.5442 22.8235
rtibia 53.8932
rfoot -5.53752 -3.50472
rtoes 6.78597
lfemur -98.6608 -16.0803 -10.1188
ltibia 35.0873
lfoot -5.5144 -22.9959
ltoes 0.401637
393
root -1.1018 16.2754 -3.84661 96.5995 29.9177 30.9382
lowerback 1.4957 2.70887 9.19861
upperback 8.54869 2.94831 10.9003
thorax 8.2079 1.66152 6.78604
lowerneck -11.694 -11.0657 -0.579713
upperneck -3.74103 -15.0255 0.737059
head 0.821117 -7.65313 -0.304944
rclavicle 9.54166e-015 3.18055e-014
rhumerus 52.5795 -20.3913 -45.0532
rradius 23.1492
rwrist -2.19699
rhand -40.5052 5.25621
rfingers 7.12502
rthumb -13.4548 -24.2892
lclavicle 9.54166e-015 3.18055e-014
lhumerus -36.1032 -41.058 108.612
lradius 79.3598
lwrist -2.14743
lhand -42.8395 20.9322
lfingers 7.12502
lthumb -15.7038 50.315
rfemur -124.153 -24.4565 22.6705
rtibia 53.6332
rfoot -5.64689 -3.49715
rtoes 7.17311
lfemur -98.5139 -15.9343 -9.92819
ltibia 35.2464
lfoot -5.7689 -22.8979
ltoes -0.471743
